<svg width="960" height="818" viewBox="0 0 960 818" fill="none" xmlns="http://www.w3.org/2000/svg">
<path d="M0.395125 807.609C0.395125 807.609 309.107 735.224 315.107 723.224C321.107 711.224 330.607 651.224 329.107 645.724C327.607 640.223 309.607 626.724 304.607 616.224C299.607 605.724 276.107 496.224 267.607 490.224C259.108 484.224 256.607 493.224 240.607 483.724C224.608 474.224 216.608 427.224 213.608 407.724C210.607 388.224 210.108 342.724 218.608 331.224C227.107 319.724 245.107 319.724 245.107 319.724C245.107 319.724 227.107 196.724 254.107 144.724C281.107 92.7236 301.107 99.7237 301.107 99.7237C301.107 99.7237 326.608 10.2233 483.107 10.7235C639.607 11.2237 663.107 103.724 663.107 103.724C663.107 103.724 696.607 115.224 711.107 153.224C725.607 191.224 720.607 316.724 720.607 316.724C720.607 316.724 731.107 315.724 741.607 324.224C752.107 332.724 748.892 375.187 746.107 407.724C743.288 440.665 734.108 477.223 725.107 485.724C716.107 494.224 704.107 485.724 700.107 490.224C696.107 494.724 674.608 594.224 663.107 612.724C651.607 631.224 634.607 640.724 632.107 645.724C629.607 650.724 638.607 713.724 646.107 723.224C653.607 732.724 958.107 807.609 958.107 807.609" stroke="#F43E00" stroke-width="20"/>
</svg>
