<svg width="302" height="98" viewBox="0 0 302 98" fill="none" xmlns="http://www.w3.org/2000/svg">
<rect x="51" width="24" height="23" rx="11.5" fill="#E0643A"/>
<rect x="114" width="24" height="23" rx="11.5" fill="#E0643A"/>
<rect x="177" width="24" height="23" rx="11.5" fill="white"/>
<path d="M63.6004 54.95C63.2204 54.47 62.7004 54.12 62.0404 53.9C61.4004 53.66 60.7904 53.54 60.2104 53.54C59.8704 53.54 59.5204 53.58 59.1604 53.66C58.8004 53.74 58.4604 53.87 58.1404 54.05C57.8204 54.21 57.5604 54.43 57.3604 54.71C57.1604 54.99 57.0604 55.33 57.0604 55.73C57.0604 56.37 57.3004 56.86 57.7804 57.2C58.2604 57.54 58.8604 57.83 59.5804 58.07C60.3204 58.31 61.1104 58.55 61.9504 58.79C62.7904 59.03 63.5704 59.37 64.2904 59.81C65.0304 60.25 65.6404 60.84 66.1204 61.58C66.6004 62.32 66.8404 63.31 66.8404 64.55C66.8404 65.73 66.6204 66.76 66.1804 67.64C65.7404 68.52 65.1404 69.25 64.3804 69.83C63.6404 70.41 62.7704 70.84 61.7704 71.12C60.7904 71.4 59.7504 71.54 58.6504 71.54C57.2704 71.54 55.9904 71.33 54.8104 70.91C53.6304 70.49 52.5304 69.81 51.5104 68.87L54.8404 65.21C55.3204 65.85 55.9204 66.35 56.6404 66.71C57.3804 67.05 58.1404 67.22 58.9204 67.22C59.3004 67.22 59.6804 67.18 60.0604 67.1C60.4604 67 60.8104 66.86 61.1104 66.68C61.4304 66.5 61.6804 66.27 61.8604 65.99C62.0604 65.71 62.1604 65.38 62.1604 65C62.1604 64.36 61.9104 63.86 61.4104 63.5C60.9304 63.12 60.3204 62.8 59.5804 62.54C58.8404 62.28 58.0404 62.02 57.1804 61.76C56.3204 61.5 55.5204 61.15 54.7804 60.71C54.0404 60.27 53.4204 59.69 52.9204 58.97C52.4404 58.25 52.2004 57.3 52.2004 56.12C52.2004 54.98 52.4204 53.98 52.8604 53.12C53.3204 52.26 53.9204 51.54 54.6604 50.96C55.4204 50.38 56.2904 49.95 57.2704 49.67C58.2504 49.37 59.2604 49.22 60.3004 49.22C61.5004 49.22 62.6604 49.39 63.7804 49.73C64.9004 50.07 65.9104 50.64 66.8104 51.44L63.6004 54.95ZM79.687 60.02H75.727V64.88C75.727 65.28 75.747 65.65 75.787 65.99C75.827 66.31 75.917 66.59 76.057 66.83C76.197 67.07 76.407 67.26 76.687 67.4C76.987 67.52 77.377 67.58 77.857 67.58C78.097 67.58 78.407 67.56 78.787 67.52C79.187 67.46 79.487 67.34 79.687 67.16V70.91C79.187 71.09 78.667 71.21 78.127 71.27C77.587 71.33 77.057 71.36 76.537 71.36C75.777 71.36 75.077 71.28 74.437 71.12C73.797 70.96 73.237 70.71 72.757 70.37C72.277 70.01 71.897 69.55 71.617 68.99C71.357 68.43 71.227 67.75 71.227 66.95V60.02H68.347V56.42H71.227V52.1H75.727V56.42H79.687V60.02ZM95.7738 68.48C95.0538 69.4 94.1438 70.11 93.0438 70.61C91.9438 71.11 90.8038 71.36 89.6238 71.36C88.5038 71.36 87.4438 71.18 86.4438 70.82C85.4638 70.46 84.6038 69.95 83.8638 69.29C83.1438 68.61 82.5738 67.8 82.1538 66.86C81.7338 65.92 81.5238 64.87 81.5238 63.71C81.5238 62.55 81.7338 61.5 82.1538 60.56C82.5738 59.62 83.1438 58.82 83.8638 58.16C84.6038 57.48 85.4638 56.96 86.4438 56.6C87.4438 56.24 88.5038 56.06 89.6238 56.06C90.6638 56.06 91.6038 56.24 92.4438 56.6C93.3038 56.96 94.0238 57.48 94.6038 58.16C95.2038 58.82 95.6638 59.62 95.9838 60.56C96.3038 61.5 96.4638 62.55 96.4638 63.71V65.12H86.0238C86.2038 65.98 86.5938 66.67 87.1938 67.19C87.7938 67.69 88.5338 67.94 89.4138 67.94C90.1538 67.94 90.7738 67.78 91.2738 67.46C91.7938 67.12 92.2438 66.69 92.6238 66.17L95.7738 68.48ZM91.9638 62.06C91.9838 61.3 91.7338 60.65 91.2138 60.11C90.6938 59.57 90.0238 59.3 89.2038 59.3C88.7038 59.3 88.2638 59.38 87.8838 59.54C87.5038 59.7 87.1738 59.91 86.8938 60.17C86.6338 60.41 86.4238 60.7 86.2638 61.04C86.1238 61.36 86.0438 61.7 86.0238 62.06H91.9638ZM99.6204 56.42H103.76V58.34H103.82C104 58.08 104.23 57.82 104.51 57.56C104.81 57.28 105.15 57.03 105.53 56.81C105.93 56.59 106.36 56.41 106.82 56.27C107.28 56.13 107.77 56.06 108.29 56.06C109.37 56.06 110.35 56.25 111.23 56.63C112.11 56.99 112.86 57.51 113.48 58.19C114.12 58.85 114.61 59.64 114.95 60.56C115.29 61.48 115.46 62.49 115.46 63.59C115.46 64.61 115.3 65.59 114.98 66.53C114.68 67.45 114.24 68.27 113.66 68.99C113.1 69.71 112.41 70.29 111.59 70.73C110.77 71.15 109.84 71.36 108.8 71.36C107.86 71.36 106.98 71.22 106.16 70.94C105.36 70.64 104.7 70.14 104.18 69.44H104.12V77.84H99.6204V56.42ZM103.76 63.71C103.76 64.81 104.07 65.7 104.69 66.38C105.33 67.06 106.22 67.4 107.36 67.4C108.5 67.4 109.38 67.06 110 66.38C110.64 65.7 110.96 64.81 110.96 63.71C110.96 62.61 110.64 61.72 110 61.04C109.38 60.36 108.5 60.02 107.36 60.02C106.22 60.02 105.33 60.36 104.69 61.04C104.07 61.72 103.76 62.61 103.76 63.71ZM126.854 66.23L135.104 58.82C135.524 58.44 135.944 58.01 136.364 57.53C136.784 57.05 136.994 56.49 136.994 55.85C136.994 55.13 136.734 54.57 136.214 54.17C135.694 53.75 135.084 53.54 134.384 53.54C133.544 53.54 132.884 53.8 132.404 54.32C131.944 54.84 131.684 55.48 131.624 56.24L127.124 55.91C127.184 54.81 127.414 53.86 127.814 53.06C128.214 52.24 128.744 51.56 129.404 51.02C130.064 50.48 130.834 50.08 131.714 49.82C132.614 49.54 133.584 49.4 134.624 49.4C135.584 49.4 136.484 49.54 137.324 49.82C138.164 50.08 138.894 50.48 139.514 51.02C140.134 51.54 140.614 52.2 140.954 53C141.314 53.8 141.494 54.73 141.494 55.79C141.494 56.47 141.424 57.09 141.284 57.65C141.144 58.19 140.944 58.69 140.684 59.15C140.444 59.59 140.154 60 139.814 60.38C139.474 60.76 139.104 61.13 138.704 61.49L132.254 67.04H141.674V71H126.854V66.23ZM153.065 63.71C153.065 62.55 153.275 61.5 153.695 60.56C154.115 59.62 154.685 58.82 155.405 58.16C156.145 57.48 157.005 56.96 157.985 56.6C158.985 56.24 160.045 56.06 161.165 56.06C162.285 56.06 163.335 56.24 164.315 56.6C165.315 56.96 166.175 57.48 166.895 58.16C167.635 58.82 168.215 59.62 168.635 60.56C169.055 61.5 169.265 62.55 169.265 63.71C169.265 64.87 169.055 65.92 168.635 66.86C168.215 67.8 167.635 68.61 166.895 69.29C166.175 69.95 165.315 70.46 164.315 70.82C163.335 71.18 162.285 71.36 161.165 71.36C160.045 71.36 158.985 71.18 157.985 70.82C157.005 70.46 156.145 69.95 155.405 69.29C154.685 68.61 154.115 67.8 153.695 66.86C153.275 65.92 153.065 64.87 153.065 63.71ZM157.565 63.71C157.565 64.81 157.875 65.7 158.495 66.38C159.135 67.06 160.025 67.4 161.165 67.4C162.305 67.4 163.185 67.06 163.805 66.38C164.445 65.7 164.765 64.81 164.765 63.71C164.765 62.61 164.445 61.72 163.805 61.04C163.185 60.36 162.305 60.02 161.165 60.02C160.025 60.02 159.135 60.36 158.495 61.04C157.875 61.72 157.565 62.61 157.565 63.71ZM173.475 60.02H170.505V56.42H173.475V53.84C173.475 53.04 173.545 52.29 173.685 51.59C173.825 50.87 174.095 50.24 174.495 49.7C174.895 49.16 175.465 48.74 176.205 48.44C176.965 48.12 177.955 47.96 179.175 47.96C179.635 47.96 180.085 47.98 180.525 48.02C180.965 48.06 181.395 48.13 181.815 48.23L181.605 52.04C181.345 51.94 181.105 51.87 180.885 51.83C180.665 51.77 180.415 51.74 180.135 51.74C179.415 51.74 178.875 51.9 178.515 52.22C178.155 52.52 177.975 53.15 177.975 54.11V56.42H181.305V60.02H177.975V71H173.475V60.02ZM196.786 58.13H198.256C198.676 58.13 199.086 58.1 199.486 58.04C199.886 57.98 200.246 57.87 200.566 57.71C200.906 57.53 201.176 57.29 201.376 56.99C201.576 56.67 201.676 56.26 201.676 55.76C201.676 55.12 201.416 54.59 200.896 54.17C200.396 53.75 199.776 53.54 199.036 53.54C198.336 53.54 197.756 53.73 197.296 54.11C196.836 54.49 196.536 54.96 196.396 55.52L191.446 54.5C191.686 53.58 192.046 52.8 192.526 52.16C193.006 51.5 193.576 50.97 194.236 50.57C194.896 50.17 195.626 49.88 196.426 49.7C197.246 49.5 198.106 49.4 199.006 49.4C199.946 49.4 200.846 49.52 201.706 49.76C202.586 49.98 203.356 50.34 204.016 50.84C204.676 51.32 205.196 51.93 205.576 52.67C205.976 53.41 206.176 54.29 206.176 55.31C206.176 56.49 205.866 57.5 205.246 58.34C204.626 59.18 203.726 59.72 202.546 59.96V60.05C203.186 60.13 203.746 60.32 204.226 60.62C204.726 60.92 205.146 61.29 205.486 61.73C205.826 62.17 206.086 62.67 206.266 63.23C206.446 63.79 206.536 64.38 206.536 65C206.536 66.06 206.326 66.99 205.906 67.79C205.506 68.59 204.956 69.26 204.256 69.8C203.576 70.32 202.766 70.71 201.826 70.97C200.906 71.23 199.926 71.36 198.886 71.36C196.986 71.36 195.346 70.92 193.966 70.04C192.606 69.16 191.706 67.77 191.266 65.87L196.006 64.76C196.166 65.52 196.486 66.12 196.966 66.56C197.466 67 198.196 67.22 199.156 67.22C200.136 67.22 200.856 66.97 201.316 66.47C201.796 65.95 202.036 65.29 202.036 64.49C202.036 63.89 201.906 63.43 201.646 63.11C201.406 62.77 201.086 62.52 200.686 62.36C200.286 62.2 199.836 62.11 199.336 62.09C198.836 62.05 198.336 62.03 197.836 62.03H196.786V58.13Z" fill="white"/>
</svg>
